<svg id="a50f8bef-26c9-4c5e-b8f5-8f12b617ef0d" data-name="Livello 1" xmlns="http://www.w3.org/2000/svg" viewBox="0 0 323.49 429.19"><title>aethernote</title><path d="M381.4,337.06c0-12.83-.17-25.66.08-38.48.09-4.52-1.71-7.11-5.59-8.93q-20.56-9.64-41-19.47c-3.69-1.77-7.3-3.7-11-5.48a4,4,0,0,1-2.58-4.15c.15-7.64,0-15.29.24-22.92a17.7,17.7,0,0,1,1.49-5.87c2.23-5.52,3.53-11.11,2.59-17.11-1.29-8.22-5.85-14.25-12.43-18.93-6.76-4.81-14.47-7.52-22.32-9.92-3.76-1.16-3.82-1.2-2.31-5q6.19-15.34,12.49-30.65c1.49-3.62,1.58-3.66,5.23-1.76,14.41,7.48,28.78,15,43.18,22.51,18.63,9.69,37.31,19.29,55.88,29.09a35.27,35.27,0,0,1,9.24,6.6c6.61,7,5.58,17.67-2.52,22.1-2.76,1.51-3.54,3.74-3.53,6.76q.09,65.1,0,130.2c0,2.67.58,4.41,3.17,5.91,9.27,5.37,9.46,19-.48,24-10.44,5.31-20.81,10.76-31.22,16.15L270.32,468.61c-2.66,1.38-5.29,2.82-8,4.13a10.62,10.62,0,0,1-9.1.18c-1.75-.74-3.51-1.51-5.19-2.39Q198.71,444.78,149.39,419c-13.79-7.17-27.71-14.09-41.56-21.14a57,57,0,0,1-6-3.44c-8.42-5.73-8.42-17.16.29-22.38,3-1.8,3.58-3.76,3.58-6.87q-.12-64.28,0-128.56c0-3.75-.82-6.27-4.22-8.4-9.06-5.67-6.84-18.11-.39-23.2a42.41,42.41,0,0,1,6.56-4.14q47.65-25,95.36-49.84c1.69-.89,3.35-1.84,5-2.72,3.55-1.85,3.64-1.87,5.22,2,2.43,5.92,4.73,11.9,7.09,17.85,1.86,4.69,3.69,9.39,5.64,14,.82,2,.55,2.79-1.69,3.44-4.44,1.29-8.77,3-13.08,4.62a43.82,43.82,0,0,0-14.45,9.1,27.47,27.47,0,0,0-6.1,30.84,28.13,28.13,0,0,1,2.48,12.64c-.19,5.87-.13,11.74,0,17.61a4,4,0,0,1-2.47,4.2c-3.09,1.44-6.15,2.94-9.23,4.41-14.39,6.89-28.74,13.85-43.18,20.63-3.95,1.85-5.6,4.42-5.57,8.91q.26,38.07,0,76.15c0,5.78,2.28,9.18,7.57,11.7,19.08,9.08,38,18.54,56.91,27.91S234.8,433,253.57,442.44a7.07,7.07,0,0,0,7,0q22.85-11.49,45.76-22.84,33.34-16.51,66.74-32.95c1-.48,1.94-1,2.92-1.48,3.84-1.87,5.52-4.9,5.49-9.2C381.34,363,381.4,350,381.4,337.06ZM395.61,235.3c.05-12.87-9-23.28-23.17-23.31-14.68,0-23,10.18-23.35,23.15A22.85,22.85,0,0,0,372,258.42,23.32,23.32,0,0,0,395.61,235.3ZM141.88,258.4a23.49,23.49,0,0,0,23.57-23.24A22.65,22.65,0,0,0,142.52,212c-14.59,0-23.33,10-23.68,23.24C118.5,248,129.11,258.35,141.88,258.4Z" transform="translate(-95.44 -44.67)"/><path d="M292.61,131.25c-4.31-9.38-8.33-18.16-12.37-26.94Q270.07,82.2,259.9,60.09a14.83,14.83,0,0,0-.93-1.82c-.5-.79-1.07-1.53-1.62-2.29a13,13,0,0,0-1.86,2.39q-14.36,31.2-28.65,62.43c-1.3,2.84-2.74,5.62-4.13,8.43-.62,1.24-1.11,1.74-2,.05-5.18-9.6-10.51-19.1-11.38-30.34-2.14-27.7,17.17-50.94,43.49-54,23-2.69,48.5,15.86,51.93,41.95,1.9,14.36-2.09,26.89-9,39C294.84,127.52,293.85,129.14,292.61,131.25Z" transform="translate(-95.44 -44.67)"/><path d="M257.4,211.21c-2.61,0-2.89-1.73-3.4-3.08q-7.41-19.69-14.78-39.43c-2-5.37-3.86-10.79-6-16.1a9.77,9.77,0,0,1,.2-8.49c7.24-15.72,14.21-31.57,21.31-47.36A30.63,30.63,0,0,1,257,93.1a33.85,33.85,0,0,1,2.29,3.7c7.37,16,14.67,32,22,48a7.37,7.37,0,0,1,.41,6.22c-6.81,18-13.47,36-20.18,54a18.44,18.44,0,0,1-1.61,3.75A15,15,0,0,1,257.4,211.21Zm-.07-76.46a9.88,9.88,0,0,0-9.95,9.75,9.77,9.77,0,0,0,9.28,10c5.46.12,10.5-4.59,10.52-9.82A10.06,10.06,0,0,0,257.33,134.75Z" transform="translate(-95.44 -44.67)"/><path d="M249,328c0,5,0,10.09,0,15.14,0,3.33-.11,3.39-3.05,2q-15.37-7.17-30.72-14.42L160.1,304.86a7,7,0,0,1-1.09-.55c-1.16-.8-2.29-1.64-3.44-2.46,1.17-.65,2.31-1.36,3.51-1.93,9.61-4.53,19.25-9,28.81-13.6,2.41-1.17,4-.91,6.16.81,13,10.37,27.9,16.27,44.33,18.49,2,.28,4.06.49,6.08.83,3.31.57,4.46,1.81,4.52,5.22C249.08,317.13,249,322.58,249,328Z" transform="translate(-95.44 -44.67)"/><path d="M265.22,327.41c0-5,0-10.08,0-15.13,0-4.37.73-5.36,5-5.85a112.55,112.55,0,0,0,30-7.58A66,66,0,0,0,320,286.75a3.94,3.94,0,0,1,5.08-.71c9.91,4.83,19.89,9.52,29.84,14.27.37.17.73.37,1.09.55,1.61.8,1.74,1.6,0,2.43-4.05,2-8.07,4-12.14,5.87q-38.1,17.8-76.21,35.6c-2.39,1.11-2.44,1.15-2.46-1.41C265.18,338,265.22,332.72,265.22,327.41Z" transform="translate(-95.44 -44.67)"/><path d="M253.34,236.2c-8.34-.45-20.45-1.29-31.92-5.71a41.89,41.89,0,0,1-10-5.42c-5.84-4.41-5.92-11-.4-15.69s12.33-6.86,19.23-8.61c2.95-.74,2.77,2,3.55,3.5.9,1.71-.62,2-1.77,2.42a23.4,23.4,0,0,0-3.76,1.55,6.54,6.54,0,0,0-1,10.73,13,13,0,0,0,3.83,2.3,72.75,72.75,0,0,0,19.44,4.2A83.13,83.13,0,0,0,274,223.79a58.48,58.48,0,0,0,9.33-2.89,13.43,13.43,0,0,0,4.14-2.55c3.12-2.76,3.23-6,.15-8.78a24.45,24.45,0,0,0-5.55-3.34c-1.12-.54-2.57-.61-1.78-2.37.67-1.48.67-4.08,3.23-3.33,7.07,2.06,14.22,4.16,19.71,9.43,5.76,5.53,5.07,11.9-1.56,16.48-5.26,3.63-11.3,5.47-17.41,6.79A124.82,124.82,0,0,1,253.34,236.2Z" transform="translate(-95.44 -44.67)"/><path d="M256.84,289.41a86.75,86.75,0,0,1-35.78-5.82,55.23,55.23,0,0,1-7.59-3.95c-2.49-1.49-3.21-3.91-3-6.71.13-1.49.78-1.95,2.14-1.34,1.62.73,3.21,1.5,4.83,2.23,9.31,4.23,19.26,6.16,29.3,7,17.13,1.39,34-.55,50.07-6.94,1.64-.66,3.21-1.5,4.81-2.25,1.15-.54,1.84-.21,1.94,1.1.17,2.21.33,4.47-1.81,5.92a47.89,47.89,0,0,1-6.88,4.3c-9.42,4.27-19.44,6-29.7,6.46C262.35,289.52,259.48,289.41,256.84,289.41Z" transform="translate(-95.44 -44.67)"/><polygon points="152.64 316.79 153.46 375.75 52.73 329.07 52.73 270.93 152.64 316.79"/><polyline points="169.84 317.61 169.84 375.75 269.74 329.07 268.93 271.75"/></svg>