<?xml version="1.0" standalone="no"?>
<!DOCTYPE svg PUBLIC "-//W3C//DTD SVG 20010904//EN"
 "http://www.w3.org/TR/2001/REC-SVG-20010904/DTD/svg10.dtd">
<svg version="1.0" xmlns="http://www.w3.org/2000/svg"
 width="512.000000pt" height="512.000000pt" viewBox="0 0 512.000000 512.000000"
 preserveAspectRatio="xMidYMid meet">
<metadata>
Created by potrace 1.14, written by Peter Selinger 2001-2017
</metadata>
<g transform="translate(0.000000,512.000000) scale(0.100000,-0.100000)"
fill="#000000" stroke="none">
<path d="M559 5100 c-186 -46 -332 -151 -447 -321 -30 -44 -52 -94 -90 -199
-15 -41 -17 -219 -19 -2000 -1 -1870 0 -1958 17 -2026 64 -247 248 -440 504
-528 l61 -21 1945 -2 c1314 -1 1963 1 2000 8 245 47 475 247 552 484 38 116
37 80 35 2085 -1 1064 -5 1944 -9 1955 -3 11 -11 40 -18 65 -7 25 -27 76 -46
114 -101 200 -280 340 -499 390 -62 14 -277 15 -1990 15 -1839 0 -1923 -1
-1996 -19z"/>
</g>
</svg>
